<?xml version="1.0" standalone="no"?>
<!DOCTYPE svg PUBLIC "-//W3C//DTD SVG 20010904//EN"
 "http://www.w3.org/TR/2001/REC-SVG-20010904/DTD/svg10.dtd">
<svg version="1.0" xmlns="http://www.w3.org/2000/svg"
 width="980.000000pt" height="550.000000pt" viewBox="0 0 980.000000 550.000000"
 preserveAspectRatio="xMidYMid meet">

<g transform="translate(0.000000,550.000000) scale(0.100000,-0.100000)"
fill="#000000" stroke="none">
<path d="M3165 5486 c-119 -29 -221 -113 -273 -223 -26 -56 -27 -65 -30 -255
l-3 -197 -447 -3 c-428 -4 -449 -5 -504 -25 -31 -12 -79 -34 -105 -49 -30 -18
-334 -311 -808 -780 -418 -413 -793 -786 -832 -827 -132 -140 -163 -232 -163
-494 l0 -173 4080 0 4080 0 0 390 c0 215 3 390 6 390 3 0 364 67 801 150 438
82 801 150 806 150 6 0 8 2 6 5 -4 4 -2761 245 -2804 245 -10 0 -16 2 -14 5 3
2 626 92 1384 200 759 107 1391 198 1405 202 14 3 -609 70 -1385 148 -775 77
-1401 144 -1390 147 11 4 637 87 1392 184 755 98 1371 179 1369 181 -2 2
-1553 183 -1570 183 -2 0 -5 37 -8 83 -3 61 -11 97 -30 139 -51 111 -165 202
-286 227 -80 17 -4608 14 -4677 -3z m-791 -1152 c14 -14 16 -84 16 -620 0
-591 0 -604 -20 -624 -20 -20 -33 -20 -781 -20 -763 0 -789 1 -811 34 -28 41
-50 19 832 860 l405 386 172 0 c143 0 174 -3 187 -16z"/>
<path d="M0 1781 c0 -432 1 -463 20 -524 34 -109 109 -194 217 -245 58 -27 58
-27 321 -30 250 -3 262 -2 262 16 0 10 9 52 20 94 92 350 358 637 699 753 233
79 510 74 737 -14 141 -55 248 -125 365 -241 174 -173 259 -331 313 -582 l6
-28 1069 0 1069 0 7 43 c39 232 191 484 388 642 195 156 424 235 681 235 293
0 536 -101 747 -310 174 -173 259 -330 314 -583 l6 -28 312 3 312 3 67 32 c85
40 151 106 191 191 l32 67 3 483 3 482 -4081 0 -4080 0 0 -459z"/>
<path d="M1752 1629 c-288 -51 -533 -255 -632 -526 -170 -469 113 -977 605
-1084 87 -19 255 -16 345 5 100 24 260 103 337 166 127 103 230 268 274 435
30 113 30 280 0 393 -78 299 -294 515 -597 597 -71 20 -258 28 -332 14z m231
-414 c83 -21 133 -50 192 -109 235 -235 104 -632 -228 -689 -172 -29 -349 67
-430 232 -30 62 -32 73 -32 171 0 98 2 110 32 170 89 182 279 274 466 225z"/>
<path d="M6038 1630 c-88 -16 -163 -42 -253 -88 -74 -38 -108 -64 -191 -146
-90 -90 -106 -112 -151 -206 -58 -118 -81 -203 -90 -323 -25 -357 212 -706
557 -821 243 -81 497 -46 715 99 307 204 436 589 316 942 -87 254 -304 456
-566 527 -70 19 -269 29 -337 16z m227 -415 c164 -43 276 -164 307 -335 30
-157 -62 -340 -210 -418 -121 -64 -251 -66 -372 -6 -162 81 -253 256 -223 429
15 86 46 149 107 214 104 110 248 153 391 116z"/>
</g>
</svg>
